# xmcd
#
# Track frame offsets:
#	150
#	13571
#	29237
#	40621
#	55334
#	64521
#	78707
#	87062
#	97882
#	110839
#	125171
#	142776
#	153264
#	164620
#	174137
#	186187
#	196401
#
# Disc length: 2753 seconds
#
# Revision: 4
# Processed by: cddbd v1.5.2PL0 Copyright (c) Steve Scherf et al.
# Submitted via: EasyCDDAExtractor 11.5.3.1
#
DISCID=de0abf11
DTITLE=Various Artist - Country Legends Volume 2
DYEAR=1900
DGENRE=Country
TTITLE0=Tammy Wynette - 'Til I Can Make It On My Own
TTITLE1=Eddie Reasoner - Last Love
TTITLE2=Denise Price - Can't Even Get The Blues
TTITLE3=Gene Watson - Love In The Hot Afternoon
TTITLE4=Skip Devol - Duelin' Banjos
TTITLE5=Mickey Gilley - Your Memory Ain't What It Used To Be
TTITLE6=Lee Greenwood - Ring On Her Finger
TTITLE7=Earl Thomas Conley - Too Hot To Handle
TTITLE8=Lorrie Morgan - Love Is Fair
TTITLE9=The Osmonds - Takin' Country To The City
TTITLE10=Bertie Higgins - Just Another Day In Paradise
TTITLE11=Boxcar Willie - Wabash Cannonball
TTITLE12=Mel Tillis - I Believe In You
TTITLE13=Georges Jones - No Show Jones
TTITLE14=Johnny Tillotson - Tell Me Baby
TTITLE15=The Bellamy Brothers - Sugar Daddy
TTITLE16=Leroy Van Dyke - Walk On By
EXTD=ID3G:   2
EXTT0=
EXTT1=
EXTT2=
EXTT3=
EXTT4=
EXTT5=
EXTT6=
EXTT7=
EXTT8=
EXTT9=
EXTT10=
EXTT11=
EXTT12=
EXTT13=
EXTT14=
EXTT15=
EXTT16=
PLAYORDER=
